<?xml version="1.0" encoding="UTF-8" standalone="no"?>
<!DOCTYPE svg PUBLIC "-//W3C//DTD SVG 1.1//EN"
        "http://www.w3.org/Graphics/SVG/1.1/DTD/svg11.dtd">
<!-- Generated by graphviz version 2.50.0 (20211204.2007)
 -->
<!-- Pages: 1 -->
<svg width="373pt" height="332pt"
     viewBox="0.00 0.00 372.98 332.00" xmlns="http://www.w3.org/2000/svg">
    <g id="graph0" class="graph" transform="scale(1 1) rotate(0) translate(4 328)">
        <polygon fill="white" stroke="transparent" points="-4,4 -4,-328 368.98,-328 368.98,4 -4,4"/>
        <!-- [root] @weaverse/elements#build -->
        <g id="node1" class="node">
            <title>[root] @weaverse/elements#build</title>
            <ellipse fill="none" stroke="black" cx="165.64" cy="-162" rx="130.78" ry="18"/>
            <text text-anchor="middle" x="165.64" y="-158.3" font-family="Times,serif" font-size="14.00">[root]
                @weaverse/elements#build
            </text>
        </g>
        <!-- [root] ___ROOT___#build -->
        <g id="node2" class="node">
            <title>[root] ___ROOT___#build</title>
            <ellipse fill="none" stroke="black" cx="165.64" cy="-90" rx="105.88" ry="18"/>
            <text text-anchor="middle" x="165.64" y="-86.3" font-family="Times,serif" font-size="14.00">[root]
                ___ROOT___#build
            </text>
        </g>
        <!-- [root] @weaverse/elements#build&#45;&gt;[root] ___ROOT___#build -->
        <g id="edge1" class="edge">
            <title>[root] @weaverse/elements#build&#45;&gt;[root] ___ROOT___#build</title>
            <path fill="none" stroke="black" d="M165.64,-143.7C165.64,-135.98 165.64,-126.71 165.64,-118.11"/>
            <polygon fill="black" stroke="black" points="169.14,-118.1 165.64,-108.1 162.14,-118.1 169.14,-118.1"/>
        </g>
        <!-- [root] ___ROOT___ -->
        <g id="node4" class="node">
            <title>[root] ___ROOT___</title>
            <ellipse fill="none" stroke="black" cx="165.64" cy="-18" rx="83.39" ry="18"/>
            <text text-anchor="middle" x="165.64" y="-14.3" font-family="Times,serif" font-size="14.00">[root]
                ___ROOT___
            </text>
        </g>
        <!-- [root] ___ROOT___#build&#45;&gt;[root] ___ROOT___ -->
        <g id="edge4" class="edge">
            <title>[root] ___ROOT___#build&#45;&gt;[root] ___ROOT___</title>
            <path fill="none" stroke="black" d="M165.64,-71.7C165.64,-63.98 165.64,-54.71 165.64,-46.11"/>
            <polygon fill="black" stroke="black" points="169.14,-46.1 165.64,-36.1 162.14,-46.1 169.14,-46.1"/>
        </g>
        <!-- [root] @weaverse/react#build -->
        <g id="node3" class="node">
            <title>[root] @weaverse/react#build</title>
            <ellipse fill="none" stroke="black" cx="248.64" cy="-234" rx="116.18" ry="18"/>
            <text text-anchor="middle" x="248.64" y="-230.3" font-family="Times,serif" font-size="14.00">[root]
                @weaverse/react#build
            </text>
        </g>
        <!-- [root] @weaverse/react#build&#45;&gt;[root] @weaverse/elements#build -->
        <g id="edge2" class="edge">
            <title>[root] @weaverse/react#build&#45;&gt;[root] @weaverse/elements#build</title>
            <path fill="none" stroke="black" d="M228.55,-216.05C218.02,-207.18 204.97,-196.17 193.48,-186.48"/>
            <polygon fill="black" stroke="black" points="195.74,-183.8 185.84,-180.03 191.22,-189.15 195.74,-183.8"/>
        </g>
        <!-- [root] @weaverse/react#build&#45;&gt;[root] ___ROOT___#build -->
        <g id="edge3" class="edge">
            <title>[root] @weaverse/react#build&#45;&gt;[root] ___ROOT___#build</title>
            <path fill="none" stroke="black"
                  d="M274.62,-216.38C286.45,-207.23 299.22,-194.74 305.64,-180 312.03,-165.33 314.73,-157.17 305.64,-144 292.96,-125.64 273.04,-113.64 252.16,-105.79"/>
            <polygon fill="black" stroke="black" points="253.12,-102.41 242.52,-102.46 250.84,-109.03 253.12,-102.41"/>
        </g>
        <!-- [root] next&#45;template#build -->
        <g id="node5" class="node">
            <title>[root] next&#45;template#build</title>
            <ellipse fill="none" stroke="black" cx="104.64" cy="-306" rx="104.78" ry="18"/>
            <text text-anchor="middle" x="104.64" y="-302.3" font-family="Times,serif" font-size="14.00">[root] next&#45;template#build</text>
        </g>
        <!-- [root] next&#45;template#build&#45;&gt;[root] @weaverse/elements#build -->
        <g id="edge5" class="edge">
            <title>[root] next&#45;template#build&#45;&gt;[root] @weaverse/elements#build</title>
            <path fill="none" stroke="black"
                  d="M105.96,-287.86C107.91,-269.37 112.6,-239.44 123.64,-216 128.29,-206.12 135.11,-196.43 141.9,-188.08"/>
            <polygon fill="black" stroke="black" points="144.77,-190.11 148.6,-180.24 139.45,-185.57 144.77,-190.11"/>
        </g>
        <!-- [root] next&#45;template#build&#45;&gt;[root] ___ROOT___#build -->
        <g id="edge7" class="edge">
            <title>[root] next&#45;template#build&#45;&gt;[root] ___ROOT___#build</title>
            <path fill="none" stroke="black"
                  d="M84.89,-288.12C51.82,-257.78 -7.98,-192.67 25.64,-144 38.32,-125.64 58.24,-113.64 79.12,-105.79"/>
            <polygon fill="black" stroke="black" points="80.44,-109.03 88.76,-102.46 78.16,-102.41 80.44,-109.03"/>
        </g>
        <!-- [root] next&#45;template#build&#45;&gt;[root] @weaverse/react#build -->
        <g id="edge6" class="edge">
            <title>[root] next&#45;template#build&#45;&gt;[root] @weaverse/react#build</title>
            <path fill="none" stroke="black" d="M138.04,-288.76C158.32,-278.9 184.41,-266.22 206.15,-255.65"/>
            <polygon fill="black" stroke="black" points="207.71,-258.79 215.17,-251.27 204.65,-252.49 207.71,-258.79"/>
        </g>
    </g>
</svg>
